<svg width="32" height="32" viewBox="0 0 32 32" fill="none" xmlns="http://www.w3.org/2000/svg">
<g id="iconamoon:profile">
<g id="Group">
<path id="Vector" d="M5.33301 23.9993C5.33301 22.5849 5.89491 21.2283 6.8951 20.2281C7.8953 19.2279 9.25185 18.666 10.6663 18.666H21.333C22.7475 18.666 24.104 19.2279 25.1042 20.2281C26.1044 21.2283 26.6663 22.5849 26.6663 23.9993C26.6663 24.7066 26.3854 25.3849 25.8853 25.885C25.3852 26.3851 24.7069 26.666 23.9997 26.666H7.99967C7.29243 26.666 6.61415 26.3851 6.11406 25.885C5.61396 25.3849 5.33301 24.7066 5.33301 23.9993Z" stroke="#589D8F" stroke-width="2" stroke-linejoin="round"/>
<path id="Vector_2" d="M16 13.333C18.2091 13.333 20 11.5421 20 9.33301C20 7.12387 18.2091 5.33301 16 5.33301C13.7909 5.33301 12 7.12387 12 9.33301C12 11.5421 13.7909 13.333 16 13.333Z" stroke="#589D8F" stroke-width="2"/>
</g>
</g>
</svg>
